<?xml version="1.0" encoding="UTF-8" standalone="no"?>
<!DOCTYPE svg PUBLIC "-//W3C//DTD SVG 1.1//EN" "http://www.w3.org/Graphics/SVG/1.1/DTD/svg11.dtd">
<svg version="1.1" xmlns="http://www.w3.org/2000/svg" xmlns:xlink="http://www.w3.org/1999/xlink" preserveAspectRatio="xMidYMid meet" viewBox="0 0 272.64 272.64" width="272.64" height="272.64"><defs><path d="M252.5 0C263.55 0 272.5 8.95 272.5 20C272.5 70.6 272.5 202.4 272.5 253C272.5 264.05 263.55 273 252.5 273C202 273 70.5 273 20 273C8.95 273 0 264.05 0 253C0 202.4 0 70.6 0 20C0 8.95 8.95 0 20 0C70.5 0 202 0 252.5 0Z" id="a5uS8wdeE"></path><path d="M130.52 62.5C132.03 62.5 133.25 63.72 133.25 65.23C133.25 93.89 133.25 177.11 133.25 205.77C133.25 207.28 132.03 208.5 130.52 208.5C123.76 208.5 106.24 208.5 99.48 208.5C97.97 208.5 96.75 207.28 96.75 205.77C96.75 177.11 96.75 93.89 96.75 65.23C96.75 63.72 97.97 62.5 99.48 62.5C106.24 62.5 123.76 62.5 130.52 62.5Z" id="a5t4pvciKv"></path><path d="M179.09 62.5C180.56 62.5 181.75 63.69 181.75 65.16C181.75 72.13 181.75 90.37 181.75 97.34C181.75 98.81 180.56 100 179.09 100C172.52 100 155.48 100 148.91 100C147.44 100 146.25 98.81 146.25 97.34C146.25 90.37 146.25 72.13 146.25 65.16C146.25 63.69 147.44 62.5 148.91 62.5C155.48 62.5 172.52 62.5 179.09 62.5Z" id="d22J0M8faR"></path><path d="M91.55 62.5C91.94 62.5 92.25 62.81 92.25 63.2C92.25 92.26 92.25 178.74 92.25 207.8C92.25 208.19 91.94 208.5 91.55 208.5C90.89 208.5 89.61 208.5 88.95 208.5C88.56 208.5 88.25 208.19 88.25 207.8C88.25 178.74 88.25 92.26 88.25 63.2C88.25 62.81 88.56 62.5 88.95 62.5C89.61 62.5 90.89 62.5 91.55 62.5Z" id="b2d4yk2BlT"></path><path d="M83.55 62.5C83.94 62.5 84.25 62.81 84.25 63.2C84.25 92.26 84.25 178.74 84.25 207.8C84.25 208.19 83.94 208.5 83.55 208.5C82.89 208.5 81.61 208.5 80.95 208.5C80.56 208.5 80.25 208.19 80.25 207.8C80.25 178.74 80.25 92.26 80.25 63.2C80.25 62.81 80.56 62.5 80.95 62.5C81.61 62.5 82.89 62.5 83.55 62.5Z" id="a1FdGYm2mb"></path><path d="M180.09 112.5C181.56 112.5 182.75 113.69 182.75 115.16C182.75 122.13 182.75 140.37 182.75 147.34C182.75 148.81 181.56 150 180.09 150C173.52 150 156.48 150 149.91 150C148.44 150 147.25 148.81 147.25 147.34C147.25 140.37 147.25 122.13 147.25 115.16C147.25 113.69 148.44 112.5 149.91 112.5C156.48 112.5 173.52 112.5 180.09 112.5Z" id="a24eqYnV61"></path></defs><g><g><g><g><use xlink:href="#a5uS8wdeE" opacity="1" fill="#fdcd3b" fill-opacity="1"></use><g><use xlink:href="#a5uS8wdeE" opacity="1" fill-opacity="0" stroke="#000000" stroke-width="1" stroke-opacity="0.01"></use></g><g><filter id="shadow9507163" x="-9" y="-9" width="291.5" height="292" filterUnits="userSpaceOnUse" primitiveUnits="userSpaceOnUse"><feFlood></feFlood><feComposite in2="SourceAlpha" operator="out"></feComposite><feGaussianBlur stdDeviation="1"></feGaussianBlur><feOffset dx="1" dy="1" result="afterOffset"></feOffset><feFlood flood-color="#000000" flood-opacity="0.5"></feFlood><feComposite in2="afterOffset" operator="in"></feComposite><feMorphology operator="dilate" radius="1"></feMorphology><feComposite in2="SourceAlpha" operator="in"></feComposite></filter><path d="M252.5 0C263.55 0 272.5 8.95 272.5 20C272.5 70.6 272.5 202.4 272.5 253C272.5 264.05 263.55 273 252.5 273C202 273 70.5 273 20 273C8.95 273 0 264.05 0 253C0 202.4 0 70.6 0 20C0 8.95 8.95 0 20 0C70.5 0 202 0 252.5 0Z" id="aky2yTfMO" fill="white" fill-opacity="1" filter="url(#shadow9507163)"></path></g></g><g><use xlink:href="#a5t4pvciKv" opacity="1" fill="#11100c" fill-opacity="1"></use><g><use xlink:href="#a5t4pvciKv" opacity="1" fill-opacity="0" stroke="#000000" stroke-width="1" stroke-opacity="0.01"></use></g><g><filter id="shadow14825395" x="87.75" y="53.5" width="55.5" height="165" filterUnits="userSpaceOnUse" primitiveUnits="userSpaceOnUse"><feFlood></feFlood><feComposite in2="SourceAlpha" operator="out"></feComposite><feGaussianBlur stdDeviation="1"></feGaussianBlur><feOffset dx="1" dy="1" result="afterOffset"></feOffset><feFlood flood-color="#000000" flood-opacity="0.5"></feFlood><feComposite in2="afterOffset" operator="in"></feComposite><feMorphology operator="dilate" radius="1"></feMorphology><feComposite in2="SourceAlpha" operator="in"></feComposite></filter><path d="M130.52 62.5C132.03 62.5 133.25 63.72 133.25 65.23C133.25 93.89 133.25 177.11 133.25 205.77C133.25 207.28 132.03 208.5 130.52 208.5C123.76 208.5 106.24 208.5 99.48 208.5C97.97 208.5 96.75 207.28 96.75 205.77C96.75 177.11 96.75 93.89 96.75 65.23C96.75 63.72 97.97 62.5 99.48 62.5C106.24 62.5 123.76 62.5 130.52 62.5Z" id="f2kdWjOTA3" fill="white" fill-opacity="1" filter="url(#shadow14825395)"></path></g></g><g><use xlink:href="#d22J0M8faR" opacity="1" fill="#11100c" fill-opacity="1"></use><g><use xlink:href="#d22J0M8faR" opacity="1" fill-opacity="0" stroke="#000000" stroke-width="1" stroke-opacity="0.01"></use></g><g><filter id="shadow10610768" x="137.25" y="53.5" width="54.5" height="56.5" filterUnits="userSpaceOnUse" primitiveUnits="userSpaceOnUse"><feFlood></feFlood><feComposite in2="SourceAlpha" operator="out"></feComposite><feGaussianBlur stdDeviation="1"></feGaussianBlur><feOffset dx="1" dy="1" result="afterOffset"></feOffset><feFlood flood-color="#000000" flood-opacity="0.5"></feFlood><feComposite in2="afterOffset" operator="in"></feComposite><feMorphology operator="dilate" radius="1"></feMorphology><feComposite in2="SourceAlpha" operator="in"></feComposite></filter><path d="M179.09 62.5C180.56 62.5 181.75 63.69 181.75 65.16C181.75 72.13 181.75 90.37 181.75 97.34C181.75 98.81 180.56 100 179.09 100C172.52 100 155.48 100 148.91 100C147.44 100 146.25 98.81 146.25 97.34C146.25 90.37 146.25 72.13 146.25 65.16C146.25 63.69 147.44 62.5 148.91 62.5C155.48 62.5 172.52 62.5 179.09 62.5Z" id="aroh8t8Sb" fill="white" fill-opacity="1" filter="url(#shadow10610768)"></path></g></g><g><use xlink:href="#b2d4yk2BlT" opacity="1" fill="#000000" fill-opacity="1"></use></g><g><use xlink:href="#a1FdGYm2mb" opacity="1" fill="#000000" fill-opacity="1"></use></g><g><use xlink:href="#a24eqYnV61" opacity="1" fill="#11100c" fill-opacity="1"></use><g><use xlink:href="#a24eqYnV61" opacity="1" fill-opacity="0" stroke="#000000" stroke-width="1" stroke-opacity="0.01"></use></g><g><filter id="shadow13714021" x="138.25" y="103.5" width="54.5" height="56.5" filterUnits="userSpaceOnUse" primitiveUnits="userSpaceOnUse"><feFlood></feFlood><feComposite in2="SourceAlpha" operator="out"></feComposite><feGaussianBlur stdDeviation="1"></feGaussianBlur><feOffset dx="1" dy="1" result="afterOffset"></feOffset><feFlood flood-color="#000000" flood-opacity="0.5"></feFlood><feComposite in2="afterOffset" operator="in"></feComposite><feMorphology operator="dilate" radius="1"></feMorphology><feComposite in2="SourceAlpha" operator="in"></feComposite></filter><path d="M180.09 112.5C181.56 112.5 182.75 113.69 182.75 115.16C182.75 122.13 182.75 140.37 182.75 147.34C182.75 148.81 181.56 150 180.09 150C173.52 150 156.48 150 149.91 150C148.44 150 147.25 148.81 147.25 147.34C147.25 140.37 147.25 122.13 147.25 115.16C147.25 113.69 148.44 112.5 149.91 112.5C156.48 112.5 173.52 112.5 180.09 112.5Z" id="aBAcD4wFq" fill="white" fill-opacity="1" filter="url(#shadow13714021)"></path></g></g></g></g></g></svg>